<svg xmlns="http://www.w3.org/2000/svg" width="130" height="130" fill="none"><path fill="#00A0FE" fill-rule="evenodd" d="M26.533 12.822q42.656-.063 85.313.127 2.296 1.025 2.92 3.428.253 44.18 0 88.359-.672 2.576-3.174 3.428-42.402.254-84.805 0-2.673-.895-3.174-3.682-.253-43.925 0-87.851.544-2.635 2.92-3.809m9.649 11.172q33.135-.063 66.269.127.698.444 1.143 1.143.378 28.088-.254 56.113a1.77 1.77 0 0 1-.889.635q-33.546.379-67.031-.254a1.77 1.77 0 0 1-.635-.889q-.255-27.675 0-55.351.39-1.086 1.397-1.524m5.586 62.715q6.768-.342 7.87 6.348-1.026 6.553-7.616 6.22-5.784-1.72-4.952-7.744 1.149-3.624 4.698-4.824m19.55 0q6.777-.33 7.871 6.348-1.023 6.548-7.617 6.22-7.35-2.628-4.19-9.775 1.573-2.017 3.936-2.793" clip-rule="evenodd" opacity=".988"/><path fill="#40434E" fill-rule="evenodd" d="M18.154 25.772h1.27V43.29q-3.507-.14-4.443-3.555-.255-5.205 0-10.41.744-2.581 3.173-3.555" clip-rule="evenodd" opacity=".95"/><path fill="#40444F" fill-rule="evenodd" d="M38.72 28.057h6.856v6.601h-6.855z" clip-rule="evenodd" opacity=".955"/><path fill="#3F444E" fill-rule="evenodd" d="M49.639 28.057h6.601v6.601H49.64z" clip-rule="evenodd" opacity=".964"/><path fill="#3F444E" fill-rule="evenodd" d="M60.303 28.057h6.855v6.601h-6.855z" clip-rule="evenodd" opacity=".978"/><path fill="#40444F" fill-rule="evenodd" d="M71.22 28.057h6.856v6.601h-6.855z" clip-rule="evenodd" opacity=".955"/><path fill="#3F444E" fill-rule="evenodd" d="M82.139 28.057h6.601v6.601H82.14z" clip-rule="evenodd" opacity=".964"/><path fill="#3F444E" fill-rule="evenodd" d="M92.803 28.057h6.855v6.601h-6.855z" clip-rule="evenodd" opacity=".978"/><path fill="#40444F" fill-rule="evenodd" d="M38.72 38.72h6.856v6.856h-6.855z" clip-rule="evenodd" opacity=".953"/><path fill="#40444F" fill-rule="evenodd" d="M49.639 38.72h6.601v6.856H49.64z" clip-rule="evenodd" opacity=".963"/><path fill="#40444E" fill-rule="evenodd" d="M60.303 38.72h6.855v6.856h-6.855z" clip-rule="evenodd" opacity=".976"/><path fill="#40444F" fill-rule="evenodd" d="M71.22 38.72h6.856v6.856h-6.855z" clip-rule="evenodd" opacity=".953"/><path fill="#40444F" fill-rule="evenodd" d="M82.139 38.72h6.601v6.856H82.14z" clip-rule="evenodd" opacity=".963"/><path fill="#40444E" fill-rule="evenodd" d="M92.803 38.72h6.855v6.856h-6.855z" clip-rule="evenodd" opacity=".976"/><path fill="#3F434E" fill-rule="evenodd" d="M18.154 49.639h1.27v13.203q-3.522-.158-4.443-3.555a36.6 36.6 0 0 1 0-6.094q.734-2.573 3.173-3.554" clip-rule="evenodd" opacity=".95"/><path fill="#40444F" fill-rule="evenodd" d="M38.72 49.639h6.856v6.601h-6.855z" clip-rule="evenodd" opacity=".963"/><path fill="#40434E" fill-rule="evenodd" d="M49.639 49.639h6.601v6.601H49.64z" clip-rule="evenodd" opacity=".97"/><path fill="#3F444E" fill-rule="evenodd" d="M60.303 49.639h6.855v6.601h-6.855z" clip-rule="evenodd" opacity=".984"/><path fill="#40444F" fill-rule="evenodd" d="M71.22 49.639h6.856v6.601h-6.855z" clip-rule="evenodd" opacity=".963"/><path fill="#40434E" fill-rule="evenodd" d="M82.139 49.639h6.601v6.601H82.14z" clip-rule="evenodd" opacity=".97"/><path fill="#3F444E" fill-rule="evenodd" d="M92.803 49.639h6.855v6.601h-6.855z" clip-rule="evenodd" opacity=".984"/><path fill="#3F444E" fill-rule="evenodd" d="M38.72 60.303h6.856v6.855h-6.855z" clip-rule="evenodd" opacity=".976"/><path fill="#3F444E" fill-rule="evenodd" d="M49.639 60.303h6.601v6.855H49.64z" clip-rule="evenodd" opacity=".984"/><path fill="#3F444E" fill-rule="evenodd" d="M60.303 60.303h6.855v6.855h-6.855z" clip-rule="evenodd"/><path fill="#3F444E" fill-rule="evenodd" d="M71.22 60.303h6.856v6.855h-6.855z" clip-rule="evenodd" opacity=".976"/><path fill="#3F444E" fill-rule="evenodd" d="M82.139 60.303h6.601v6.855H82.14z" clip-rule="evenodd" opacity=".984"/><path fill="#3F444E" fill-rule="evenodd" d="M92.803 60.303h6.855v6.855h-6.855z" clip-rule="evenodd"/><path fill="#40434F" fill-rule="evenodd" d="M38.72 71.22h6.856v6.856h-6.855z" clip-rule="evenodd" opacity=".949"/><path fill="#40434F" fill-rule="evenodd" d="M49.639 71.22h6.601v6.856H49.64z" clip-rule="evenodd" opacity=".957"/><path fill="#3F444E" fill-rule="evenodd" d="M60.303 71.22h6.855v6.856h-6.855z" clip-rule="evenodd" opacity=".968"/><path fill="#40434F" fill-rule="evenodd" d="M71.22 71.22h6.856v6.856h-6.855z" clip-rule="evenodd" opacity=".949"/><path fill="#40434F" fill-rule="evenodd" d="M82.139 71.22h6.601v6.856H82.14z" clip-rule="evenodd" opacity=".957"/><path fill="#3F444E" fill-rule="evenodd" d="M92.803 71.22h6.855v6.856h-6.855z" clip-rule="evenodd" opacity=".968"/><path fill="#3F434E" fill-rule="evenodd" d="M42.276 90.772q3.582-.292 3.046 3.173-1.268 2.12-3.554 1.016-1.074-1.271-.635-2.92.39-.832 1.143-1.27" clip-rule="evenodd" opacity=".934"/><path fill="#3F434E" fill-rule="evenodd" d="M61.826 90.771q3.678-.32 2.92 3.301-.654 1.303-2.158 1.27-2.849-.745-1.904-3.555a6.3 6.3 0 0 1 1.142-1.016" clip-rule="evenodd" opacity=".937"/><path fill="#3F434E" fill-rule="evenodd" d="M36.69 112.354h17.52q.062 1.528-.128 3.046a2.35 2.35 0 0 1-1.142 1.397l-7.49.127a65 65 0 0 1-7.999-.381 1.77 1.77 0 0 1-.635-.889 21.5 21.5 0 0 1-.126-3.3" clip-rule="evenodd" opacity=".941"/><path fill="#40444F" fill-rule="evenodd" d="M84.17 112.354h17.773a11.5 11.5 0 0 1-.38 3.554l-.635.635q-3.963.435-7.998.381l-7.49-.127a2.83 2.83 0 0 1-1.143-1.651 15.5 15.5 0 0 1-.127-2.792" clip-rule="evenodd" opacity=".943"/></svg>