<svg xmlns="http://www.w3.org/2000/svg" width="130" height="130" fill="none"><path fill="#40444F" fill-rule="evenodd" d="M105.244 25.772q5.207-.064 10.41.127.826.317 1.143 1.142.253 18.282 0 36.563a2.9 2.9 0 0 1-.889 1.142q-5.458.255-10.918 0-.99-.356-1.142-1.396-.255-18.028 0-36.055.517-.96 1.396-1.524" clip-rule="evenodd" opacity=".983"/><path fill="#00A0FE" fill-rule="evenodd" d="M38.213 30.088h61.445v30.469q-26.66-.064-53.32.127-2.185.359-2.92 2.412l-.254 13.457q-.299.68-.889 1.142-7.085.438-14.218.381-7.133.056-14.22-.38l-.888-.89q-.255-10.917 0-21.835 3.895-21.352 25.264-24.883" clip-rule="evenodd" opacity=".995"/><path fill="#3F444E" fill-rule="evenodd" d="M21.201 82.139q4.459.014 2.92 4.316a28 28 0 0 1-2.412 3.682 28 28 0 0 1 2.412 3.681q.789 2.454-.254 4.825-1.961 1.766-2.539 4.316-1.467 1.589-3.427.635-1.306-1.954-.381-4.19a51 51 0 0 0 2.412-3.554 46 46 0 0 1-2.412-3.301q-1.53-4.406 2.03-7.364.16-1.935 1.651-3.046" clip-rule="evenodd" opacity=".962"/><path fill="#3F434E" fill-rule="evenodd" d="M34.912 82.139q3.939-.389 3.174 3.554l-.508 1.524q-1.23 1.356-2.158 2.92a18 18 0 0 0 2.158 2.92q1.851 4.783-2.031 8.125-.334 3.56-3.682 2.412-1.41-1.293-.888-3.174l.508-1.523q1.23-1.357 2.158-2.92a27 27 0 0 1-2.412-3.682q-1.273-4.431 2.285-7.363.11-1.744 1.396-2.793" clip-rule="evenodd" opacity=".965"/></svg>