<svg xmlns="http://www.w3.org/2000/svg" width="130" height="130" fill="none"><path fill="#00A0FE" fill-rule="evenodd" d="M34.912 12.822q29.961-.063 59.922.127 3.783 1.117 4.697 4.951.255 46.972 0 93.946-.956 4.002-4.95 4.951-29.708.253-59.415 0-3.996-.95-4.951-4.951-.255-46.972 0-93.946.985-3.84 4.697-5.078m1.016 4.57q8.126-.064 16.25.128 1.038 3.582 1.904 7.236l.889.889q4.916.437 9.902.38 4.986.057 9.902-.38l.89-.89a151 151 0 0 1 1.903-7.235q8.126-.255 16.25 0 .546.177.89.634.63 46.317.253 92.676-.105.696-.635 1.143-29.167.632-58.398.254a1.78 1.78 0 0 1-.889-.635q-.632-46.317-.254-92.676.228-1.05 1.143-1.523m35.8 27.423q3.202.335 2.159 3.3L63.604 58.398q-1.27.762-2.54 0l-5.205-5.205q-1.14-2.61 1.65-3.3.548.083 1.017.38l3.554 3.555q.255.255.508 0a456 456 0 0 1 9.14-9.013M51.163 86.709h4.824v4.063q-2.288.064-4.57-.128-1.95-.66-1.396-2.666.39-.832 1.142-1.269" clip-rule="evenodd" opacity=".956"/><path fill="#3F444E" fill-rule="evenodd" d="M61.572 32.373q14.856-1.302 21.455 11.934 4.758 13.788-6.22 23.232-10.324 6.972-21.583 1.524-13.568-9.094-8.505-24.756 4.438-9.735 14.853-11.934m10.156 12.442a456 456 0 0 0-9.14 9.013q-.255.255-.508 0l-3.555-3.555a2.6 2.6 0 0 0-1.015-.38q-2.79.69-1.65 3.3l5.204 5.206q1.27.76 2.54 0l10.283-10.284q1.042-2.965-2.159-3.3" clip-rule="evenodd" opacity=".99"/><path fill="#00A0FE" fill-rule="evenodd" d="M50.146 82.139q14.727-.064 29.454.127 6.223 2.48 4.443 9.013-1.481 3.189-4.951 3.936-14.745.372-29.453-.254-5.243-2.295-4.19-7.998 1.15-3.624 4.697-4.824m1.016 4.57a2.8 2.8 0 0 0-1.143 1.27q-.552 2.006 1.397 2.666 2.282.19 4.57.127v-4.063z" clip-rule="evenodd" opacity=".982"/><path fill="#40444F" fill-rule="evenodd" d="M57.764 103.721q7.11-.064 14.218.127 1.608.536 1.778 2.285-.184 1.452-1.524 2.031-7.364.254-14.726 0-2.32-1.377-.889-3.682a4.4 4.4 0 0 1 1.142-.761" clip-rule="evenodd" opacity=".948"/></svg>