<svg xmlns="http://www.w3.org/2000/svg" width="131" height="130" fill="none"><path fill="#00A0FE" fill-rule="evenodd" d="M41.76 95.342H28.303a80 80 0 0 1-10.664-.381q-3.37-1.218-4.19-4.697-.255-29.835 0-59.668 1.117-3.784 4.951-4.698 32.246-.19 64.493-.127v69.57zm3.808-60.684q18.276-.548 26.28 15.742 6.15 16.985-6.729 29.58-12.735 10.258-27.93 4.063-18.088-9.965-14.091-30.342 5.482-16.339 22.47-19.043M47.6 41.26q5.103-.593 9.394 2.158a11.5 11.5 0 0 1 1.904 2.158 5.26 5.26 0 0 1-.254 3.047 31.7 31.7 0 0 0-6.474 6.983q2.74-.699 5.586-1.27 9.536-1.647 9.648 7.998.12 5.28-3.808 8.76-2.053 1.168-4.063-.254a22.7 22.7 0 0 0-6.474-6.22q.745 2.988 1.27 6.093 1.221 9.1-7.999 9.14-4.924.03-8.506-3.3-1.736-2.314 0-4.57 3.45-2.752 5.967-6.348l-.254-.254q-5.585 2.383-11.426.889-3.555-2.781-3.3-7.364-.157-5.017 3.3-8.632 1.995-1.395 4.063-.254a31.7 31.7 0 0 0 6.982 6.474q-.684-2.614-1.27-5.332-2.002-7.943 5.714-9.902" clip-rule="evenodd" opacity=".985"/><path fill="#00A0FE" fill-rule="evenodd" d="M102.443 95.342H86.956v-69.57q12.694-.064 25.39.127 3.834.913 4.951 4.697.253 29.833 0 59.668-.82 3.48-4.19 4.697a80 80 0 0 1-10.664.38m-7.617-58.399q7.365-.063 14.727.127.882.423 1.142 1.397.255 10.155 0 20.312a7.5 7.5 0 0 1-.634 1.143 116.5 116.5 0 0 1-15.235.254l-.888-.889a213 213 0 0 1-.254-20.566q.345-1.041 1.142-1.778m5.586 32.5q9.078-.605 10.41 8.38-1.092 8.52-9.648 8.505-6.948-1.425-7.617-8.506.804-6.385 6.855-8.379" clip-rule="evenodd" opacity=".991"/><path fill="#3F434E" fill-rule="evenodd" d="M46.076 38.72q14.803-.506 21.709 12.442 6.118 15.706-6.475 26.787-12.984 8.715-26.152.254-12.338-10.179-7.49-25.518 5.34-12.138 18.408-13.964m1.523 2.54q-7.716 1.96-5.712 9.902.585 2.72 1.269 5.332a31.7 31.7 0 0 1-6.982-6.474q-2.068-1.14-4.063.253-3.457 3.615-3.3 8.633-.255 4.583 3.3 7.363 5.841 1.495 11.426-.888l.254.254a30.3 30.3 0 0 1-5.967 6.347q-1.737 2.258 0 4.57 3.582 3.333 8.506 3.301 9.219-.04 7.998-9.14-.524-3.105-1.27-6.094a22.7 22.7 0 0 1 6.475 6.22q2.01 1.422 4.063.255 3.927-3.48 3.808-8.76-.113-9.645-9.648-7.998-2.847.571-5.586 1.27a31.7 31.7 0 0 1 6.474-6.983q.58-1.476.254-3.047a11.5 11.5 0 0 0-1.904-2.158q-4.291-2.75-9.395-2.158" clip-rule="evenodd" opacity=".962"/><path fill="#3F444E" fill-rule="evenodd" d="M97.873 41.006h8.887q-.032 2.355-1.397 4.316a20 20 0 0 1-6.347 0q-1.462-1.924-1.143-4.316" clip-rule="evenodd" opacity=".974"/><path fill="#3F434E" fill-rule="evenodd" d="M47.854 45.322q3.166-.285 6.093.889l.762.635a28.7 28.7 0 0 0-6.348 7.236 6.3 6.3 0 0 1-1.777.127 31 31 0 0 1-1.016-5.967q.1-.97.381-1.904a21 21 0 0 1 1.904-1.016" clip-rule="evenodd" opacity=".96"/><path fill="#40434F" fill-rule="evenodd" d="M97.873 49.639h8.887v6.601h-8.887z" clip-rule="evenodd" opacity=".985"/><path fill="#3F434E" fill-rule="evenodd" d="M34.143 53.955a38.5 38.5 0 0 0 7.49 6.348 1.66 1.66 0 0 1-.127 1.523q-3.952 1.608-7.998.508-1.636-4.281.635-8.379" clip-rule="evenodd" opacity=".959"/><path fill="#40444F" fill-rule="evenodd" d="M47.092 58.272q3.582-.292 3.047 3.173-.866 1.765-2.793 1.27-2.13-.897-1.397-3.174.39-.832 1.143-1.27" clip-rule="evenodd" opacity=".928"/><path fill="#3F434E" fill-rule="evenodd" d="M57.756 58.272q2.162-.064 4.316.127 1.727 2.31 1.143 5.204a5.94 5.94 0 0 1-1.524 3.555 22 22 0 0 0-6.982-6.093 43 43 0 0 1-.508-1.65 30 30 0 0 1 3.555-1.143" clip-rule="evenodd" opacity=".954"/><path fill="#40444F" fill-rule="evenodd" d="M47.6 66.904q1.736-.35 2.158 1.27a13.2 13.2 0 0 1 .253 6.601q-4.114 2.035-8.251-.127-.363-.273-.127-.634a25.3 25.3 0 0 0 5.078-5.332q.65-.792.888-1.778" clip-rule="evenodd" opacity=".95"/><path fill="#40434E" fill-rule="evenodd" d="M100.666 73.506q5.252-.775 6.094 4.443-1.086 5.274-6.348 4.063-3.414-1.853-2.412-5.713.898-1.85 2.666-2.793" clip-rule="evenodd" opacity=".97"/><path fill="#3F444E" fill-rule="evenodd" d="M28.303 95.342H41.76a41.3 41.3 0 0 1-.381 7.617q-.463.59-1.143.889-5.205.253-10.41 0a2.94 2.94 0 0 1-1.142-.889 42.6 42.6 0 0 1-.381-7.617M88.986 95.342h13.457q.15 3.834-.381 7.617a2.94 2.94 0 0 1-1.142.889q-5.205.253-10.41 0a2.94 2.94 0 0 1-1.143-.889 41.3 41.3 0 0 1-.38-7.617" clip-rule="evenodd" opacity=".988"/></svg>